# xmcd
#
# Track frame offsets: 
#        150
#        32883
#        58080
#        87725
#        119608
#        150088
#        174603
#
# Disc length: 2657 seconds
#
# Revision: 0
# Processed by: cddbd v1.5.2PL0 Copyright (c) Steve Scherf et al.
# Submitted via: ExactAudioCopy v1.2
#
DISCID=590a5f07
DTITLE=Phil Guy - Tina Nu
DYEAR=1988
DGENRE=Blues
TTITLE0=Tina Nu
TTITLE1=Steppin' Out
TTITLE2=Where Can I Go
TTITLE3=Professor's Boogie
TTITLE4=Good Thing
TTITLE5=Stone Crazy
TTITLE6=It's a Real Mutha
EXTD=
EXTT0=
EXTT1=
EXTT2=
EXTT3=
EXTT4=
EXTT5=
EXTT6=
PLAYORDER=
